<?xml version="1.0" encoding="UTF-8"?>
<svg xmlns="http://www.w3.org/2000/svg" xmlns:xlink="http://www.w3.org/1999/xlink" width="32px" height="32px" viewBox="0 0 32 32" version="1.1">
<g id="surface1">
<path style=" stroke:none;fill-rule:nonzero;fill:rgb(11.372549%,51.372552%,83.137256%);fill-opacity:1;" d="M 23.710938 12.902344 C 23.710938 14.25 22.613281 15.347656 21.265625 15.347656 L 11.390625 15.347656 C 10.039062 15.347656 8.945312 14.25 8.945312 12.902344 "/>
<path style=" stroke:none;fill-rule:nonzero;fill:rgb(12.941177%,58.823532%,95.294118%);fill-opacity:1;" d="M 8.945312 12.902344 C 8.945312 11.550781 10.042969 10.457031 11.390625 10.457031 L 21.265625 10.457031 C 22.613281 10.457031 23.710938 11.550781 23.710938 12.902344 "/>
<path style=" stroke:none;fill-rule:nonzero;fill:rgb(87.058824%,87.058824%,87.058824%);fill-opacity:1;" d="M 14.71875 12.902344 C 14.71875 13.144531 14.621094 13.378906 14.449219 13.554688 C 14.277344 13.726562 14.042969 13.824219 13.796875 13.824219 L 11.953125 13.824219 C 11.441406 13.824219 11.027344 13.410156 11.027344 12.902344 "/>
<path style=" stroke:none;fill-rule:nonzero;fill:rgb(100%,100%,100%);fill-opacity:1;" d="M 11.027344 12.902344 C 11.027344 12.390625 11.441406 11.976562 11.953125 11.976562 L 13.796875 11.976562 C 14.304688 11.976562 14.71875 12.390625 14.71875 12.902344 "/>
<path style=" stroke:none;fill-rule:nonzero;fill:rgb(34.117648%,61.960787%,83.92157%);fill-opacity:1;" d="M 23.734375 17.765625 C 23.734375 19.117188 22.640625 20.210938 21.289062 20.210938 L 11.414062 20.210938 C 10.066406 20.210938 8.96875 19.117188 8.96875 17.765625 "/>
<path style=" stroke:none;fill-rule:nonzero;fill:rgb(39.215687%,70.980394%,96.470588%);fill-opacity:1;" d="M 8.96875 17.765625 C 8.96875 16.414062 10.066406 15.320312 11.414062 15.320312 L 21.289062 15.320312 C 22.640625 15.320312 23.734375 16.414062 23.734375 17.765625 "/>
<path style=" stroke:none;fill-rule:nonzero;fill:rgb(87.058824%,87.058824%,87.058824%);fill-opacity:1;" d="M 14.742188 17.765625 C 14.742188 18.011719 14.648438 18.246094 14.472656 18.417969 C 14.300781 18.589844 14.066406 18.6875 13.820312 18.6875 L 11.976562 18.6875 C 11.464844 18.6875 11.054688 18.273438 11.054688 17.765625 "/>
<path style=" stroke:none;fill-rule:nonzero;fill:rgb(100%,100%,100%);fill-opacity:1;" d="M 11.054688 17.765625 C 11.054688 17.253906 11.464844 16.84375 11.976562 16.84375 L 13.820312 16.84375 C 14.332031 16.84375 14.742188 17.253906 14.742188 17.765625 "/>
<path style=" stroke:none;fill-rule:nonzero;fill:rgb(37.64706%,49.019608%,54.509807%);fill-opacity:1;" d="M 9.996094 26.210938 C 9.910156 26.359375 9.761719 26.46875 9.59375 26.507812 C 9.421875 26.546875 9.246094 26.515625 9.101562 26.417969 C 5.359375 23.976562 3.109375 19.808594 3.109375 15.34375 C 3.105469 12.800781 3.835938 10.308594 5.21875 8.171875 C 5.316406 8.027344 5.464844 7.929688 5.632812 7.898438 C 5.800781 7.867188 5.976562 7.90625 6.117188 8.007812 C 6.390625 8.203125 6.460938 8.582031 6.273438 8.867188 C 5.027344 10.796875 4.371094 13.046875 4.375 15.34375 C 4.386719 19.382812 6.425781 23.144531 9.800781 25.359375 C 10.082031 25.546875 10.167969 25.917969 9.996094 26.207031 Z M 16.335938 28.574219 C 15.570312 28.574219 14.800781 28.507812 14.046875 28.375 C 13.875 28.34375 13.722656 28.246094 13.625 28.101562 C 13.527344 27.957031 13.496094 27.777344 13.535156 27.609375 C 13.609375 27.28125 13.925781 27.070312 14.257812 27.125 C 14.941406 27.246094 15.640625 27.308594 16.335938 27.308594 C 22.9375 27.308594 28.300781 21.941406 28.300781 15.34375 C 28.300781 15.121094 28.28125 14.789062 28.257812 14.5 C 28.234375 14.15625 28.492188 13.855469 28.832031 13.824219 C 29.003906 13.808594 29.171875 13.863281 29.300781 13.972656 C 29.429688 14.082031 29.511719 14.242188 29.523438 14.410156 C 29.542969 14.722656 29.566406 15.089844 29.566406 15.34375 C 29.5625 22.648438 23.640625 28.570312 16.335938 28.574219 Z M 27.757812 10.070312 C 27.453125 10.210938 27.089844 10.089844 26.933594 9.789062 C 25.265625 6.617188 22.265625 4.359375 18.757812 3.632812 C 15.25 2.910156 11.601562 3.792969 8.816406 6.042969 C 8.554688 6.257812 8.171875 6.230469 7.945312 5.976562 C 7.828125 5.847656 7.773438 5.675781 7.785156 5.503906 C 7.800781 5.328125 7.886719 5.171875 8.019531 5.0625 C 11.101562 2.570312 15.136719 1.59375 19.015625 2.394531 C 22.894531 3.195312 26.210938 5.695312 28.054688 9.203125 C 28.132812 9.355469 28.148438 9.535156 28.09375 9.699219 C 28.039062 9.863281 27.917969 9.996094 27.761719 10.070312 Z M 27.757812 10.070312 "/>
<path style="fill-rule:nonzero;fill:rgb(37.64706%,49.019608%,54.509807%);fill-opacity:1;stroke-width:24;stroke-linecap:butt;stroke-linejoin:miter;stroke:rgb(37.64706%,49.019608%,54.509807%);stroke-opacity:1;stroke-miterlimit:10;" d="M 304.418101 530.083113 L 304.714443 570.311642 C 304.714443 574.090012 301.084244 576.53484 298.120817 574.682698 L 267.078913 554.753647 L 236.111094 534.898682 C 234.703466 533.935568 233.888524 532.305683 233.888524 530.601712 C 233.814438 528.897741 234.62938 527.267856 236.037009 526.304742 L 266.78257 506.005263 L 297.454046 485.705784 C 300.417473 483.779556 304.121758 486.150298 304.121758 489.928669 Z M 86.087572 202.624362 L 50.007841 185.066054 C 46.525813 183.362083 46.007214 179.065113 48.970641 177.212971 L 80.531145 158.247034 L 112.091649 139.207012 C 113.647449 138.392069 115.425505 138.392069 116.981305 139.132926 C 118.537104 139.873783 119.574304 141.281411 119.870647 142.985382 L 129.057272 216.033872 C 129.501786 219.589985 125.723416 221.812556 122.315474 220.182671 Z M 510.894919 162.173576 L 547.715507 145.948809 C 551.197534 144.39301 554.901819 146.763752 554.309133 150.245779 L 542.455423 222.997927 C 542.084994 224.701898 540.973709 226.109526 539.417909 226.776297 C 537.788024 227.443069 536.009968 227.368983 534.528254 226.479955 L 472.88896 186.177339 C 469.925532 184.251111 470.666389 179.880056 474.148417 178.324256 Z M 510.894919 162.173576 " transform="matrix(0.0527261,0,0,0.0527261,0,0)"/>
</g>
</svg>
